<svg xmlns="http://www.w3.org/2000/svg" viewBox="0 0 500 500"><g id="freepik--background-complete--inject-35"><rect y="382.4" width="500" height="0.25" style="fill:#e6e6e6"></rect><rect x="85.91" y="392.99" width="33.74" height="0.25" style="fill:#e6e6e6"></rect><rect x="58.55" y="393.11" width="20.02" height="0.25" style="fill:#e6e6e6"></rect><rect x="124.56" y="397.64" width="94.79" height="0.25" style="fill:#e6e6e6"></rect><rect x="253.65" y="388.97" width="36.46" height="0.25" style="fill:#e6e6e6"></rect><rect x="335" y="391.19" width="78.67" height="0.25" style="fill:#e6e6e6"></rect><path d="M237,337.8H43.91a5.71,5.71,0,0,1-5.7-5.71V60.66A5.71,5.71,0,0,1,43.91,55H237a5.71,5.71,0,0,1,5.71,5.71V332.09A5.71,5.71,0,0,1,237,337.8ZM43.91,55.2a5.46,5.46,0,0,0-5.45,5.46V332.09a5.46,5.46,0,0,0,5.45,5.46H237a5.47,5.47,0,0,0,5.46-5.46V60.66A5.47,5.47,0,0,0,237,55.2Z" style="fill:#e6e6e6"></path><path d="M453.31,337.8H260.21a5.72,5.72,0,0,1-5.71-5.71V60.66A5.72,5.72,0,0,1,260.21,55h193.1A5.71,5.71,0,0,1,459,60.66V332.09A5.71,5.71,0,0,1,453.31,337.8ZM260.21,55.2a5.47,5.47,0,0,0-5.46,5.46V332.09a5.47,5.47,0,0,0,5.46,5.46h193.1a5.47,5.47,0,0,0,5.46-5.46V60.66a5.47,5.47,0,0,0-5.46-5.46Z" style="fill:#e6e6e6"></path><rect x="307.59" y="298.09" width="15.12" height="84.13" transform="translate(-1.06 0.98) rotate(-0.18)" style="fill:#e6e6e6"></rect><polygon points="314.64 176.14 364.03 351.14 350.99 344.05 351.03 357.22 339.57 339.79 333.98 350.1 322.38 339.08 315.84 355 307.92 339.13 300.2 354.08 290.73 339.94 282.62 351.03 282.04 335.53 266.34 351.45 314.64 176.14" style="fill:#f5f5f5"></polygon><polygon points="314.59 160.98 283.87 270.06 292.13 265.6 292.16 273.79 299.38 262.9 302.98 269.29 310.31 262.39 314.53 272.27 319.5 262.36 324.47 271.63 330.44 262.8 335.63 269.67 335.95 260.02 345.99 269.87 314.59 160.98" style="fill:#e6e6e6"></polygon><polygon points="314.53 141.65 294.61 222.34 299.97 219.04 299.99 225.1 304.68 217.04 307.02 221.78 311.78 216.67 314.52 223.98 317.75 216.66 320.98 223.52 324.85 216.98 328.23 222.07 328.43 214.93 334.96 222.21 314.53 141.65" style="fill:#f5f5f5"></polygon><path d="M322.46,157.29c-2.2-10.34-5.09-23.49-9.86-17.77-7.78,9.32-8.25,44.23-6.31,36.69,2-7.7,9.33-10.76,12.69-3S326.66,177.05,322.46,157.29Z" style="fill:#fafafa"></path><path d="M308.19,185.18c-3.15-.64-1.21-9.63,4.11-11.5S313.49,186.26,308.19,185.18Z" style="fill:#fff"></path><rect x="390.07" y="331.78" width="21.65" height="50.18" transform="translate(-1.11 1.25) rotate(-0.18)" style="fill:#e6e6e6"></rect><polygon points="400.55 249.31 470.83 367.54 452.19 362.77 452.22 371.68 435.86 359.92 427.83 366.9 411.24 359.48 401.85 370.26 390.55 359.55 379.46 369.68 365.94 360.14 354.31 367.66 353.51 357.17 331.01 367.98 400.55 249.31" style="fill:#e6e6e6"></polygon><polygon points="400.52 239.06 356.3 312.89 368.13 309.86 368.15 315.39 378.51 308.01 383.64 312.33 394.15 307.65 400.17 314.32 407.32 307.61 414.4 313.86 422.96 307.88 430.39 312.51 430.86 305.98 445.21 312.62 400.52 239.06" style="fill:#f5f5f5"></polygon><polygon points="400.48 225.98 371.77 280.6 379.46 278.35 379.47 282.45 386.2 276.99 389.54 280.19 396.36 276.73 400.27 281.66 404.91 276.7 409.52 281.33 415.08 276.9 419.9 280.33 420.2 275.5 429.53 280.42 400.48 225.98" style="fill:#e6e6e6"></polygon><path d="M414.3,240.56c-3.3-12.85-5.52-21.69-15.5-16.52-13.95,7.23-20.69,40.51-14.87,33.43,4.9-6,16.61-13.93,22.81-10.91C413.9,250.05,420,262.74,414.3,240.56Z" style="fill:#fafafa"></path><path d="M391.59,261.6c-2.19-3.14,4.7-8.86,10.14-6S395.29,266.9,391.59,261.6Z" style="fill:#fff"></path><path d="M421.84,266.24c-1.09,2.13-5.24-1.47-4.91-5.79S423.67,262.65,421.84,266.24Z" style="fill:#fff"></path><rect x="215.7" y="321.76" width="14.5" height="60.75" transform="translate(-1.1 0.7) rotate(-0.18)" style="fill:#e6e6e6"></rect><polygon points="222.57 228.05 269.82 362.49 257.32 357.05 257.35 367.17 246.38 353.78 241.01 361.71 229.89 353.25 223.61 365.48 216.02 353.29 208.61 364.79 199.54 353.93 191.76 362.45 191.21 350.54 176.15 362.78 222.57 228.05" style="fill:#e6e6e6"></polygon><polygon points="222.53 216.41 193.01 300.24 200.94 296.8 200.96 303.1 207.88 294.73 211.33 299.63 218.37 294.33 222.41 301.92 227.18 294.3 231.94 301.42 237.66 294.63 242.64 299.91 242.95 292.49 252.57 300.05 222.53 216.41" style="fill:#f5f5f5"></polygon><polygon points="222.48 201.55 203.33 263.56 208.48 261.02 208.49 265.68 212.99 259.49 215.23 263.12 219.8 259.2 222.43 264.81 225.53 259.18 228.62 264.45 232.34 259.43 235.57 263.33 235.77 257.85 242.02 263.44 222.48 201.55" style="fill:#e6e6e6"></polygon><path d="M211.27,220.18c3.57-11.74,8.24-26.66,14.76-19.88,10.66,11.08,11.61,48.65,8.72,40.11-3.05-9-8.58-11.49-15.34-7.89C211.24,236.87,204.45,242.61,211.27,220.18Z" style="fill:#fafafa"></path><path d="M217.16,243.3c-2.36-2.57,3-8.79,8.22-6.9S221.14,247.62,217.16,243.3Z" style="fill:#fff"></path><rect x="134.98" y="286.78" width="26.55" height="95.96" transform="translate(-1.04 0.46) rotate(-0.18)" style="fill:#e6e6e6"></rect><polygon points="147.68 150.53 234.06 345.95 211.18 338.06 211.23 352.76 191.14 333.32 181.3 344.84 160.94 332.56 149.43 350.36 135.55 332.64 121.97 349.36 105.37 333.58 91.11 345.99 90.12 328.67 62.53 346.49 147.68 150.53" style="fill:#f5f5f5"></polygon><polygon points="147.63 133.6 93.47 255.52 107.99 250.52 108.02 259.67 120.72 247.49 127.02 254.63 139.91 246.91 147.3 257.93 156.06 246.86 164.76 257.2 175.25 247.32 184.37 254.99 184.93 244.21 202.54 255.18 147.63 133.6" style="fill:#e6e6e6"></polygon><polygon points="147.56 112 112.42 202.19 121.85 198.49 121.87 205.26 130.11 196.25 134.21 201.53 142.58 195.83 147.38 203.99 153.07 195.79 158.72 203.45 165.54 196.14 171.46 201.82 171.82 193.84 183.27 201.97 147.56 112" style="fill:#f5f5f5"></polygon><path d="M132.09,130.26c5.11-11.75,11.8-26.67,21.11-19.9,15.2,11.06,14,51.08,10.52,42.35-3.54-8.92-18.26-12.78-25.57-4S122.33,152.7,132.09,130.26Z" style="fill:#fafafa"></path><path d="M145.78,155.42c-1.51-5.85,10.22-9.26,16.17-1.57S148.34,165.3,145.78,155.42Z" style="fill:#fff"></path><path d="M125.86,165.89c-3-1.43.26-9.48,5.7-9.86S130.85,168.3,125.86,165.89Z" style="fill:#fff"></path><path d="M65,142.42a3.09,3.09,0,1,1-3.1-3.07A3.09,3.09,0,0,1,65,142.42Z" style="fill:#f0f0f0"></path><path d="M87.83,124.2a3.09,3.09,0,1,1-3.1-3.07A3.09,3.09,0,0,1,87.83,124.2Z" style="fill:#f0f0f0"></path><path d="M54.05,89A3.09,3.09,0,1,1,51,85.9,3.08,3.08,0,0,1,54.05,89Z" style="fill:#f0f0f0"></path><path d="M109.66,72.62a3.08,3.08,0,1,1-3.09-3.07A3.08,3.08,0,0,1,109.66,72.62Z" style="fill:#f0f0f0"></path><circle cx="56.17" cy="225.86" r="3.08" style="fill:#f0f0f0"></circle><path d="M213.07,104.05a3.09,3.09,0,1,0,3.08-3.1A3.08,3.08,0,0,0,213.07,104.05Z" style="fill:#f0f0f0"></path><path d="M178.82,86a3.09,3.09,0,1,0,3.07-3.09A3.09,3.09,0,0,0,178.82,86Z" style="fill:#f0f0f0"></path><path d="M192.62,174.47a3.09,3.09,0,1,0,3.07-3.09A3.08,3.08,0,0,0,192.62,174.47Z" style="fill:#f0f0f0"></path><path d="M212.38,50.57a3.08,3.08,0,1,0,3.07-3.1A3.08,3.08,0,0,0,212.38,50.57Z" style="fill:#f0f0f0"></path><path d="M156.66,34.56a3.09,3.09,0,1,0,3.07-3.09A3.09,3.09,0,0,0,156.66,34.56Z" style="fill:#f0f0f0"></path><circle cx="436.86" cy="144.65" r="3.08" style="fill:#f0f0f0"></circle><path d="M382.9,103.52a3.09,3.09,0,1,0,3.08-3.09A3.08,3.08,0,0,0,382.9,103.52Z" style="fill:#f0f0f0"></path><path d="M406.89,195a3.09,3.09,0,1,0,3.08-3.1A3.08,3.08,0,0,0,406.89,195Z" style="fill:#f0f0f0"></path><path d="M444.37,91.14a3.09,3.09,0,1,0,3.08-3.09A3.09,3.09,0,0,0,444.37,91.14Z" style="fill:#f0f0f0"></path><path d="M341.48,82.41a3.08,3.08,0,1,0,3.07-3.09A3.08,3.08,0,0,0,341.48,82.41Z" style="fill:#f0f0f0"></path><path d="M241,151.6a3.08,3.08,0,1,1-3.09-3.07A3.07,3.07,0,0,1,241,151.6Z" style="fill:#f0f0f0"></path><path d="M307.87,44.1A3.08,3.08,0,1,1,304.78,41,3.07,3.07,0,0,1,307.87,44.1Z" style="fill:#f0f0f0"></path><path d="M274.55,75.5a3.08,3.08,0,1,1-3.09-3.08A3.08,3.08,0,0,1,274.55,75.5Z" style="fill:#f0f0f0"></path><path d="M354.21,157.56a3.08,3.08,0,1,1-3.09-3.07A3.07,3.07,0,0,1,354.21,157.56Z" style="fill:#f0f0f0"></path><circle cx="398.17" cy="63.82" r="3.08" style="fill:#f0f0f0"></circle></g><g id="freepik--Shadow--inject-35"><ellipse cx="250" cy="416.24" rx="193.89" ry="11.32" style="fill:#f5f5f5"></ellipse></g><g id="freepik--Snowman--inject-35"><path d="M411.12,405.48a8.58,8.58,0,0,1-3.89-5.1,18.58,18.58,0,0,0-.7-2.11,15.27,15.27,0,0,1,.08-11.56A92.39,92.39,0,0,0,391,290.62,13.74,13.74,0,0,1,388,278a69,69,0,0,0-26.57-74.13,13.58,13.58,0,0,1-4.91-15.23,41.79,41.79,0,1,0-78,4.21,13.67,13.67,0,0,1-3.16,15.79A69,69,0,0,0,254.71,278a13.77,13.77,0,0,1-3,12.63,92.38,92.38,0,0,0-15,97.54,15.68,15.68,0,0,1-1.63,15.41l-.06.09a8.73,8.73,0,0,1-3.43,2.8,37.16,37.16,0,0,0-9.88-1.29c-11.67,0-21.12,4.95-21.12,11.07H418.33S418.16,409.8,411.12,405.48Z" style="fill:#407BFF"></path><path d="M411.12,405.48a8.58,8.58,0,0,1-3.89-5.1,18.58,18.58,0,0,0-.7-2.11,15.27,15.27,0,0,1,.08-11.56A92.39,92.39,0,0,0,391,290.62,13.74,13.74,0,0,1,388,278a69,69,0,0,0-26.57-74.13,13.58,13.58,0,0,1-4.91-15.23,41.79,41.79,0,1,0-78,4.21,13.67,13.67,0,0,1-3.16,15.79A69,69,0,0,0,254.71,278a13.77,13.77,0,0,1-3,12.63,92.38,92.38,0,0,0-15,97.54,15.68,15.68,0,0,1-1.63,15.41l-.06.09a8.73,8.73,0,0,1-3.43,2.8,37.16,37.16,0,0,0-9.88-1.29c-11.67,0-21.12,4.95-21.12,11.07H418.33S418.16,409.8,411.12,405.48Z" style="fill:#fff;opacity:0.8"></path><path d="M352.14,201.58a3.32,3.32,0,0,1,3.57,3.08c.93,14,6.43,48.06,7.76,52.33,1.46,4.66-11,7.5-11,7.5v7.83s-15.59-2.3-17.25-10c-1.44-6.66,4.92-46.81,6.64-57.44a3.33,3.33,0,0,1,3-2.78Z" style="fill:#407BFF"></path><path d="M357.21,218.74l-18,3c-.25,1.64-.49,3.33-.74,5.05,5-.4,13.51-1.61,19.07-5.31C357.44,220.54,357.32,219.63,357.21,218.74Z" style="opacity:0.2"></path><path d="M352.46,261.38V225.44S357.94,256.17,352.46,261.38Z" style="opacity:0.2"></path><path d="M277.89,191.45c4.74,5.09,62.8,10.77,78.87,6.41a5.47,5.47,0,0,1,6.41,3.64c1.25,3.25,6.33,3.75,10.33,8.58s-24.75,16.09-62.17,16.84-42.67-8.31-42.66-11.45,5.25-7.55,5.66-11.39S274.19,187.47,277.89,191.45Z" style="fill:#407BFF"></path><path d="M286.69,167.25c0,2.42,1.28,4.38,2.87,4.38s2.86-2,2.86-4.38-1.28-4.39-2.86-4.39S286.69,164.83,286.69,167.25Z" style="fill:#263238"></path><path d="M314.05,167.25c0,2.42,1.29,4.38,2.87,4.38s2.86-2,2.86-4.38-1.28-4.39-2.86-4.39S314.05,164.83,314.05,167.25Z" style="fill:#263238"></path><path d="M292.45,241c-.32,2.4.7,4.51,2.27,4.71s3.1-1.57,3.41-4-.71-4.52-2.28-4.72S292.76,238.56,292.45,241Z" style="fill:#263238"></path><path d="M292.44,267.35c.3,2.4,1.81,4.19,3.38,4s2.61-2.3,2.31-4.7-1.81-4.19-3.38-4S292.15,265,292.44,267.35Z" style="fill:#263238"></path><path d="M298,172.54l-33.54,6a.72.72,0,0,0,0,1.43l34.05,4.33a4,4,0,0,0,4.43-3.35,11.37,11.37,0,0,0-.57-6A4,4,0,0,0,298,172.54Z" style="fill:#de5753"></path><path d="M378.33,229a2,2,0,0,1-1.38-3.44l28.33-27.29a2,2,0,1,1,2.77,2.88L379.72,228.4A2,2,0,0,1,378.33,229Z" style="fill:#263238"></path><path d="M392,215.79a2,2,0,0,1-2-1.72l-2-13.9a2,2,0,0,1,4-.57l2,13.9a2,2,0,0,1-1.7,2.27Z" style="fill:#263238"></path><path d="M409,208.84l-.29,0-8.5-1.23a2,2,0,0,1,.57-4l8.51,1.23a2,2,0,0,1-.29,4Z" style="fill:#263238"></path><path d="M181.18,409.94a21.13,21.13,0,0,0-5.38.67c-3.94-4.13-12.09-7-21.51-7-13.27,0-24,5.64-24,12.6H193.2C193.2,412.76,187.82,409.94,181.18,409.94Z" style="fill:#407BFF"></path><path d="M181.18,409.94a21.13,21.13,0,0,0-5.38.67c-3.94-4.13-12.09-7-21.51-7-13.27,0-24,5.64-24,12.6H193.2C193.2,412.76,187.82,409.94,181.18,409.94Z" style="fill:#fff;opacity:0.6000000000000001"></path></g><g id="freepik--Character--inject-35"><path d="M157.23,169.8,150,185c-2.4,5.08-4.75,10.18-6.84,15.24l-.76,1.89c-.11.3-.14.36-.22.61s-.14.44-.19.72a30.52,30.52,0,0,0-.6,3.63c-.28,2.6-.44,5.37-.54,8.13-.19,5.55-.25,11.24-.32,16.87l-5.48.61a144.16,144.16,0,0,1-2.72-17.22,84.55,84.55,0,0,1-.42-9,36.86,36.86,0,0,1,.34-4.87c.06-.42.16-.89.25-1.36s.27-1.06.39-1.44l.68-2.13c1.87-5.63,4-11,6.34-16.3s4.74-10.48,7.39-15.65Z" style="fill:#e4897b"></path><path d="M159.41,170.89c-2.33,5-4.83,10.11-7.23,15.14s-4.81,10.08-7,15l-.77,1.84c-.11.28-.11.21-.18.42a5.93,5.93,0,0,0-.19.59,29.39,29.39,0,0,0-.65,3.35c-.33,2.5-.57,5.22-.74,8-.39,5.49-.58,11.17-1,16.79l-7.88.88a121.72,121.72,0,0,1-3.38-17.31,78.35,78.35,0,0,1-.63-9.12,36.21,36.21,0,0,1,.29-5.14c0-.45.16-1,.26-1.5s.3-1.23.42-1.63l.67-2.18c1.82-5.75,4-11.17,6.23-16.52s4.69-10.56,7.41-15.75Z" style="fill:#407BFF"></path><path d="M159.41,170.89c-2.33,5-4.83,10.11-7.23,15.14s-4.81,10.08-7,15l-.77,1.84c-.11.28-.11.21-.18.42a5.93,5.93,0,0,0-.19.59,29.39,29.39,0,0,0-.65,3.35c-.33,2.5-.57,5.22-.74,8-.39,5.49-.58,11.17-1,16.79l-7.88.88a121.72,121.72,0,0,1-3.38-17.31,78.35,78.35,0,0,1-.63-9.12,36.21,36.21,0,0,1,.29-5.14c0-.45.16-1,.26-1.5s.3-1.23.42-1.63l.67-2.18c1.82-5.75,4-11.17,6.23-16.52s4.69-10.56,7.41-15.75Z" style="fill:#fff;opacity:0.5"></path><path d="M150.16,159.1c-6.89,1.57-13.52,22.65-13.52,22.65l13.23,8.78s4.58-8.93,8.47-17.13C162.42,164.8,157.2,157.48,150.16,159.1Z" style="fill:#407BFF"></path><path d="M150.16,159.1c-6.89,1.57-13.52,22.65-13.52,22.65l13.23,8.78s4.58-8.93,8.47-17.13C162.42,164.8,157.2,157.48,150.16,159.1Z" style="fill:#fff;opacity:0.5"></path><path d="M182.69,159.05c5.7-.6,11.6-1.34,17.31-2.24a107.84,107.84,0,0,0,16.52-3.7c.64-.22,1.24-.45,1.83-.68a12.16,12.16,0,0,0,1.44-.7c1.1-.63,2.32-1.37,3.5-2.16,2.38-1.59,4.8-3.28,7.19-5L245,134.14l3.68,4.11c-4.09,4.5-8.33,8.78-12.8,12.92-2.25,2.06-4.53,4.09-7,6.05-1.23,1-2.47,2-3.91,2.92a21.26,21.26,0,0,1-2.5,1.46c-.77.37-1.55.72-2.32,1a73.14,73.14,0,0,1-9.16,3c-3,.82-6.07,1.47-9.11,2.05a169,169,0,0,1-18.3,2.43Z" style="fill:#e4897b"></path><path d="M180.64,158.18c5.59-.92,11.41-1.87,17.05-2.92,2.82-.51,5.64-1.08,8.39-1.68,1.39-.29,2.72-.64,4.09-1s2.66-.7,3.9-1.08c.62-.2,1.29-.37,1.85-.59l1.66-.58a8.8,8.8,0,0,0,1.31-.6c.52-.28,1.09-.58,1.67-.92,2.31-1.35,4.74-3,7.16-4.53,4.87-3.19,9.79-6.55,14.85-9.66l5.29,5.9A142.94,142.94,0,0,1,235.5,154c-2.21,2.14-4.49,4.2-7.06,6.24-.65.51-1.32,1-2.06,1.54a24.32,24.32,0,0,1-2.58,1.59l-.38.2-.29.13-.59.28-1.19.54c-.8.39-1.55.66-2.33,1a93.77,93.77,0,0,1-9.11,3.06c-3,.89-6,1.59-9,2.3-6,1.32-11.94,2.42-18.13,3.16Z" style="fill:#407BFF"></path><path d="M180.64,158.18c5.59-.92,11.41-1.87,17.05-2.92,2.82-.51,5.64-1.08,8.39-1.68,1.39-.29,2.72-.64,4.09-1s2.66-.7,3.9-1.08c.62-.2,1.29-.37,1.85-.59l1.66-.58a8.8,8.8,0,0,0,1.31-.6c.52-.28,1.09-.58,1.67-.92,2.31-1.35,4.74-3,7.16-4.53,4.87-3.19,9.79-6.55,14.85-9.66l5.29,5.9A142.94,142.94,0,0,1,235.5,154c-2.21,2.14-4.49,4.2-7.06,6.24-.65.51-1.32,1-2.06,1.54a24.32,24.32,0,0,1-2.58,1.59l-.38.2-.29.13-.59.28-1.19.54c-.8.39-1.55.66-2.33,1a93.77,93.77,0,0,1-9.11,3.06c-3,.89-6,1.59-9,2.3-6,1.32-11.94,2.42-18.13,3.16Z" style="fill:#fff;opacity:0.5"></path><path d="M165.16,138.43c1.06,5.38,2.11,15.22-1.65,18.81,0,0,1.47,5.45,11.45,5.45,11,0,5.25-5.45,5.25-5.45-6-1.43-5.84-5.88-4.79-10.05Z" style="fill:#e4897b"></path><path d="M181.7,130.26c.12.59.53,1,.91.92s.59-.61.47-1.19-.52-1-.9-.92S181.59,129.68,181.7,130.26Z" style="fill:#263238"></path><path d="M182.17,131.26a21,21,0,0,0,3.79,4.41,3.45,3.45,0,0,1-2.67,1.08Z" style="fill:#de5753"></path><path d="M178.92,127.47a.33.33,0,0,1-.23-.09.35.35,0,0,1,0-.49,3.43,3.43,0,0,1,3-1.15.34.34,0,0,1,.28.4.34.34,0,0,1-.4.28h0a2.75,2.75,0,0,0-2.33.94A.36.36,0,0,1,178.92,127.47Z" style="fill:#263238"></path><path d="M162.09,133c1.88,7,2.63,11.26,7,14.19,6.53,4.4,14.67-.65,14.93-8.12.23-6.71-2.9-17.1-10.46-18.52A9.94,9.94,0,0,0,162.09,133Z" style="fill:#e4897b"></path><path d="M171.81,117.15c-4.91-1.53-14,1.26-14.87,4.63-1.33,5.23-2.29,2.11-1.88,7.94.3,4.27,6.23,14.28,11.73,14.8,7.12.66,8.16-12.49,8.19-19.11C175,121.5,185,121.28,171.81,117.15Z" style="fill:#263238"></path><path d="M176,119.11c2,.47,4.65,12-3.1,13.06C164,133.38,176,119.11,176,119.11Z" style="fill:#263238"></path><path d="M172.13,133.09a8.21,8.21,0,0,0,3.63,3.85c2.11,1.1,3.3-.5,2.82-2.62-.43-1.9-2.05-4.77-4.22-5S171.25,131.09,172.13,133.09Z" style="fill:#e4897b"></path><path d="M158.5,164.18c-1.2-4-2.52-8.54.21-10,3-1.57,19.46-3.17,25.13-.22s4.06,11,4.06,11Z" style="fill:#407BFF"></path><path d="M158.5,164.18c-1.2-4-2.52-8.54.21-10,3-1.57,19.46-3.17,25.13-.22s4.06,11,4.06,11Z" style="opacity:0.7000000000000001"></path><path d="M161.33,154.83c-4.23-1.41-3.15-7.51-.91-7.91,4.16-.75,17.92-1.33,21.39,1.88s-1,10.71-1,10.71Z" style="fill:#407BFF"></path><path d="M161.33,154.83c-4.23-1.41-3.15-7.51-.91-7.91,4.16-.75,17.92-1.33,21.39,1.88s-1,10.71-1,10.71Z" style="opacity:0.7000000000000001"></path><path d="M319.18,106.21h0a8.43,8.43,0,0,1-11.07-4.4l-6.46-15a4.42,4.42,0,0,0-5.81-2.31l-47.12,20.32a4.42,4.42,0,0,0-2.31,5.81l6.46,15a8.43,8.43,0,0,1-4.4,11.07h0a1.34,1.34,0,0,0-.7,1.76l1.22,2.82a1.33,1.33,0,0,0,1.75.7l70.72-30.49a1.34,1.34,0,0,0,.7-1.76l-1.22-2.82A1.34,1.34,0,0,0,319.18,106.21Z" style="fill:#407BFF"></path><path d="M319.18,106.21h0a8.43,8.43,0,0,1-11.07-4.4l-6.46-15a4.42,4.42,0,0,0-5.81-2.31l-47.12,20.32a4.42,4.42,0,0,0-2.31,5.81l6.46,15a8.43,8.43,0,0,1-4.4,11.07h0a1.34,1.34,0,0,0-.7,1.76l1.22,2.82a1.33,1.33,0,0,0,1.75.7l70.72-30.49a1.34,1.34,0,0,0,.7-1.76l-1.22-2.82A1.34,1.34,0,0,0,319.18,106.21Z" style="opacity:0.30000000000000004"></path><polygon points="171.33 412.11 182.04 412.11 183.25 390.19 171.95 390 171.33 412.11" style="fill:#263238"></polygon><polygon points="126.27 412.11 136.94 412.11 141.89 390.4 131.03 390.17 126.27 412.11" style="fill:#263238"></polygon><path d="M178,222.78s-8.34,56.14-12.92,77.17c-5,23-23.89,99.76-23.89,99.76H127.74s12.45-74.87,15.31-97.67c3.11-24.75,9.6-79.26,9.6-79.26Z" style="fill:#407BFF"></path><path d="M178,222.78s-8.34,56.14-12.92,77.17c-5,23-23.89,99.76-23.89,99.76H127.74s12.45-74.87,15.31-97.67c3.11-24.75,9.6-79.26,9.6-79.26Z" style="opacity:0.6000000000000001"></path><path d="M172.74,242.78c-9.64,1.89-8.62,37.84-7.46,56.33,2.78-13.07,6.85-38.22,9.63-56.07A3.29,3.29,0,0,0,172.74,242.78Z" style="opacity:0.4"></path><path d="M192,222.78s1,54.92.21,77.33c-.83,23.3-9,99.6-9,99.6H170.74s-.45-74.94-1-97.82c-.6-24.95-3.61-79.11-3.61-79.11Z" style="fill:#407BFF"></path><path d="M192,222.78s1,54.92.21,77.33c-.83,23.3-9,99.6-9,99.6H170.74s-.45-74.94-1-97.82c-.6-24.95-3.61-79.11-3.61-79.11Z" style="opacity:0.6000000000000001"></path><path d="M113.89,251.79A2,2,0,0,1,113,248l32.51-16.31a2,2,0,1,1,1.79,3.58l-32.51,16.3A1.89,1.89,0,0,1,113.89,251.79Z" style="fill:#263238"></path><path d="M129.87,256.53l-.32,0a2,2,0,0,1-1.66-2.29l2.22-13.87a2,2,0,1,1,3.95.63l-2.22,13.87A2,2,0,0,1,129.87,256.53Z" style="fill:#263238"></path><path d="M121.54,247.94a2.06,2.06,0,0,1-.86-.19l-7.75-3.7a2,2,0,0,1,1.72-3.61l7.76,3.7a2,2,0,0,1-.87,3.8Z" style="fill:#263238"></path><path d="M140.44,230.42l2.55,4.79-8.17,2.28s-1.56-3.85.3-6.89Z" style="fill:#e4897b"></path><polygon points="144.22 239.67 137.08 241.92 134.82 237.49 143 235.21 144.22 239.67" style="fill:#e4897b"></polygon><path d="M135.73,408.79h-8.25a.65.65,0,0,0-.63.51l-1.45,6.53a1.08,1.08,0,0,0,1.08,1.3c2.88-.05,4.28-.22,7.91-.22,2.23,0,6.83.24,9.92.24s3.48-3,2.22-3.33c-5.66-1.24-7.79-2.95-9.6-4.57A1.78,1.78,0,0,0,135.73,408.79Z" style="fill:#263238"></path><path d="M180.23,407.21h-8a.65.65,0,0,0-.63.5l-1.38,8.12a1.06,1.06,0,0,0,1.05,1.3c2.9-.05,7.08-.22,10.72-.22,4.25,0,7.92.24,12.91.24,3,0,3.85-3,2.59-3.33a47.26,47.26,0,0,1-15.47-6A3.44,3.44,0,0,0,180.23,407.21Z" style="fill:#263238"></path><path d="M244.81,134.24l4.31-8.37,5.38,6s-2.58,8.06-7.86,7.18Z" style="fill:#e4897b"></path><polygon points="254.5 123.53 261.22 127.39 254.5 131.83 249.12 125.87 254.5 123.53" style="fill:#e4897b"></polygon><path d="M180.6,390.77h0a.14.14,0,0,1-.11-.14c2.2-21.12,7.37-72.21,8-90.53.67-18.74.06-60.69-.14-73.1a.12.12,0,0,1,.12-.12.13.13,0,0,1,.13.12c.2,12.41.81,54.37.14,73.11-.65,18.33-5.83,69.43-8,90.55A.13.13,0,0,1,180.6,390.77Z" style="fill:#407BFF;opacity:0.48"></path><path d="M143.35,394.75c.05,0-1.39,5.17-1.39,5.17H126.82l.28-4.61Z" style="fill:#407BFF"></path><path d="M143.35,394.75c.05,0-1.39,5.17-1.39,5.17H126.82l.28-4.61Z" style="fill:#fff;opacity:0.6000000000000001"></path><path d="M185.58,394.75c.06,0-.7,5.17-.7,5.17H169.74l-.41-4.61Z" style="fill:#407BFF"></path><path d="M185.58,394.75c.06,0-.7,5.17-.7,5.17H169.74l-.41-4.61Z" style="fill:#fff;opacity:0.6000000000000001"></path><path d="M141.54,232.53l-7.59.59a.9.9,0,0,1-.94-.68l-.82-3.35A.89.89,0,0,1,133,228l8.35-.17a.89.89,0,0,1,.91.87l.06,2.94A.9.9,0,0,1,141.54,232.53Z" style="fill:#407BFF"></path><path d="M141.54,232.53l-7.59.59a.9.9,0,0,1-.94-.68l-.82-3.35A.89.89,0,0,1,133,228l8.35-.17a.89.89,0,0,1,.91.87l.06,2.94A.9.9,0,0,1,141.54,232.53Z" style="opacity:0.30000000000000004"></path><path d="M242.7,134.64l5.16,5.59a.9.9,0,0,1,0,1.16l-2.12,2.72a.89.89,0,0,1-1.4,0l-5.3-6.44a.89.89,0,0,1,.12-1.26l2.27-1.87A.89.89,0,0,1,242.7,134.64Z" style="fill:#407BFF"></path><path d="M242.7,134.64l5.16,5.59a.9.9,0,0,1,0,1.16l-2.12,2.72a.89.89,0,0,1-1.4,0l-5.3-6.44a.89.89,0,0,1,.12-1.26l2.27-1.87A.89.89,0,0,1,242.7,134.64Z" style="opacity:0.30000000000000004"></path><path d="M156.75,135.76c3.28.11,16.07-2.08,23.57-11.27a.77.77,0,0,0,.14-.67,13.35,13.35,0,0,0-2.38-4.56.72.72,0,0,0-1-.1c-3.35,2.59-9,7.69-22.09,10.45a.72.72,0,0,0-.57.86,33.88,33.88,0,0,0,1.7,4.85A.71.71,0,0,0,156.75,135.76Z" style="fill:#407BFF"></path><path d="M156.75,135.76c3.28.11,16.07-2.08,23.57-11.27a.77.77,0,0,0,.14-.67,13.35,13.35,0,0,0-2.38-4.56.72.72,0,0,0-1-.1c-3.35,2.59-9,7.69-22.09,10.45a.72.72,0,0,0-.57.86,33.88,33.88,0,0,0,1.7,4.85A.71.71,0,0,0,156.75,135.76Z" style="opacity:0.30000000000000004"></path><path d="M155,129.92c-1.16-.08-3.85-8.26,1.7-12.75,5-4,15.82-4.54,20.7,2.33C178.13,120.71,164.82,130.54,155,129.92Z" style="fill:#407BFF"></path><path d="M155,129.92c-1.16-.08-3.85-8.26,1.7-12.75,5-4,15.82-4.54,20.7,2.33C178.13,120.71,164.82,130.54,155,129.92Z" style="fill:#fff;opacity:0.5"></path><path d="M191.51,159.28s7.82,8.83.44,63.5h-39.3c-.27-6,3.52-35.46-2.3-63.88a102.86,102.86,0,0,1,13.16-1.66,145.27,145.27,0,0,1,16.7,0A73.5,73.5,0,0,1,191.51,159.28Z" style="fill:#407BFF"></path><path d="M191.51,159.28s7.82,8.83.44,63.5h-39.3c-.27-6,3.52-35.46-2.3-63.88a102.86,102.86,0,0,1,13.16-1.66,145.27,145.27,0,0,1,16.7,0A73.5,73.5,0,0,1,191.51,159.28Z" style="fill:#fff;opacity:0.5"></path><path d="M163,115.12c0,.33-.48.62-.53.94s.29.76.18,1.06-.66.42-.82.7,0,.81-.2,1.06-.76.17-1,.38-.26.77-.55.93-.77-.1-1.08,0-.5.63-.83.69-.68-.36-1-.36-.7.41-1,.36-.53-.58-.84-.69-.79.15-1.08,0-.29-.72-.54-.93-.8-.13-1-.38,0-.77-.2-1.06-.71-.39-.82-.7.24-.73.18-1.06-.53-.61-.53-.94.47-.62.53-.94-.29-.76-.18-1.06.66-.42.82-.7,0-.82.2-1.07.76-.16,1-.37.26-.77.54-.93.77.1,1.08,0,.51-.63.84-.69.68.36,1,.36.7-.41,1-.36.53.58.83.69.8-.16,1.08,0,.3.72.55.93.8.12,1,.38,0,.77.2,1.06.7.39.82.7-.24.73-.18,1.06S163,114.79,163,115.12Z" style="fill:#407BFF"></path><path d="M163,115.12c0,.33-.48.62-.53.94s.29.76.18,1.06-.66.42-.82.7,0,.81-.2,1.06-.76.17-1,.38-.26.77-.55.93-.77-.1-1.08,0-.5.63-.83.69-.68-.36-1-.36-.7.41-1,.36-.53-.58-.84-.69-.79.15-1.08,0-.29-.72-.54-.93-.8-.13-1-.38,0-.77-.2-1.06-.71-.39-.82-.7.24-.73.18-1.06-.53-.61-.53-.94.47-.62.53-.94-.29-.76-.18-1.06.66-.42.82-.7,0-.82.2-1.07.76-.16,1-.37.26-.77.54-.93.77.1,1.08,0,.51-.63.84-.69.68.36,1,.36.7-.41,1-.36.53.58.83.69.8-.16,1.08,0,.3.72.55.93.8.12,1,.38,0,.77.2,1.06.7.39.82.7-.24.73-.18,1.06S163,114.79,163,115.12Z" style="opacity:0.30000000000000004"></path><path d="M191.67,225.5h-38.9a.93.93,0,0,1-.93-1l.2-4.05a.93.93,0,0,1,.93-.89h38.95a.93.93,0,0,1,.93,1l-.25,4.06A.93.93,0,0,1,191.67,225.5Z" style="fill:#407BFF"></path><path d="M191.67,225.5h-38.9a.93.93,0,0,1-.93-1l.2-4.05a.93.93,0,0,1,.93-.89h38.95a.93.93,0,0,1,.93,1l-.25,4.06A.93.93,0,0,1,191.67,225.5Z" style="opacity:0.30000000000000004"></path></g></svg>